<svg class="canvas" viewBox="0 0 1920 1080" preserveAspectRatio="xMaxYMid slice" xmlns="http://www.w3.org/2000/svg" version="1.1" xmlns:xlink="http://www.w3.org/1999/xlink" xmlns:svgjs="http://svgjs.dev/svgjs"><rect width="1920" height="1080" fill="hsl(285, 65%, 15%)"></rect><defs><linearGradient x1="0.5" y1="0" x2="0" y2="1" id="SvgjsLinearGradient1511"><stop stop-color="#37288a" offset="0"></stop><stop stop-color="#140612" offset="0.1"></stop></linearGradient><linearGradient x1="0.5" y1="0" x2="0" y2="1" id="SvgjsLinearGradient1512"><stop stop-color="#5e288a" offset="0"></stop><stop stop-color="#14060c" offset="0.22857142857142856"></stop></linearGradient><linearGradient x1="0.5" y1="0" x2="0" y2="1" id="SvgjsLinearGradient1513"><stop stop-color="#5e288a" offset="0"></stop><stop stop-color="#14060c" offset="0.3571428571428571"></stop></linearGradient><linearGradient x1="0.5" y1="0" x2="0" y2="1" id="SvgjsLinearGradient1514"><stop stop-color="#c7c0f2" offset="0"></stop><stop stop-color="#d742c0" offset="0.48571428571428565"></stop></linearGradient><linearGradient x1="0.5" y1="0" x2="0" y2="1" id="SvgjsLinearGradient1515"><stop stop-color="#d1c0f2" offset="0"></stop><stop stop-color="#d742a3" offset="0.6142857142857142"></stop></linearGradient><linearGradient x1="0.5" y1="0" x2="0" y2="1" id="SvgjsLinearGradient1516"><stop stop-color="#dbc0f2" offset="0"></stop><stop stop-color="#d74285" offset="0.7428571428571429"></stop></linearGradient><linearGradient x1="0.5" y1="0" x2="0" y2="1" id="SvgjsLinearGradient1517"><stop stop-color="#d1c0f2" offset="0"></stop><stop stop-color="#d742a3" offset="0.8714285714285713"></stop></linearGradient></defs><path d="M0,-505.55025663406497C47.429249948394414,-489.97841841844956,182.34758768539223,-443.40922194417675,284.5754996903665,-412.1192273403725C386.80341169534074,-380.82923273656826,502.4855300904214,-343.53459438035753,613.3674720298457,-317.8102890112394C724.24941396927,-292.0859836421212,837.0988306976798,-281.7990126646323,949.8671513269122,-257.7733951256637C1062.6354719561446,-233.74777758669507,1184.509440264031,-203.9294487826229,1289.9773958052403,-173.6565837774277C1395.4453513464498,-143.3837187722325,1477.6711172083753,-110.82059295171965,1582.6748845741686,-76.13620509449252C1687.6786519399618,-41.451817237265395,1863.7791474290282,16.018751955863788,1920,34.44974336593505L 1920 1080 L 0 1080 Z" fill="url(&quot;#SvgjsLinearGradient1511&quot;)"></path><path d="M0,-455.5458055659801C38.463630757371334,-453.4817270344051,151.0447478565677,-463.9271755613096,230.781784544228,-443.16133437652996C310.5188212318883,-422.39549319175035,402.81131608415575,-371.5682457261323,478.42222012596187,-330.95075845730224C554.0331241677679,-290.33327118847217,608.253963967045,-232.2376151842762,684.4472087950647,-199.4564107635495C760.6404536230845,-166.67520634282283,851.8733017567432,-147.61017134654514,935.5816890940802,-134.26353193294213C1019.2900764314171,-120.91689251933911,1098.5119850104138,-144.2395885765539,1186.6975328190863,-119.37657428193143C1274.8830806277588,-94.51355998730895,1387.0526456620294,-11.456002795596813,1464.6949759461147,14.914553834792684C1542.3373062302,41.285110465182186,1576.667343847951,24.875873019581974,1652.5515145235986,38.84676550040555C1728.435685199246,52.81765798122913,1875.4252524205997,88.7577181831794,1920,98.73990871973417L 1920 1080 L 0 1080 Z" fill="url(&quot;#SvgjsLinearGradient1512&quot;)"></path><path d="M0,-288.26904541301997C50.64120555300471,-274.1222789366653,215.0536766041028,-225.8566770453838,303.84723331802826,-203.388446554892C392.6407900319537,-180.9202160644002,442.604249239551,-176.5020359206345,532.7613402835526,-153.45966247006908C622.9184313275542,-130.41728901950364,755.5220806354364,-93.75388734897925,844.7897795820379,-65.13420585149935C934.0574785286394,-36.51452435401944,981.8591484801906,-11.64987928246045,1068.3675339631618,18.258426514810377C1154.8759194461331,48.16673231208121,1264.3437220006895,85.9906173605112,1363.8400924798655,114.3156289321256C1463.3364629590415,142.64064050374,1572.6524389181955,160.54403690678296,1665.345756838218,188.2084959444968C1758.0390747582405,215.87295498221064,1877.557626139703,264.95340195609003,1920,280.3023831584087L 1920 1080 L 0 1080 Z" fill="url(&quot;#SvgjsLinearGradient1513&quot;)"></path><path d="M0,-131.56347604505729C47.09391316034145,-110.48451059072853,209.882255265904,-36.04079084113798,282.5634789620487,-5.089683319084735C355.2447026581934,25.86142420296851,354.3922417079497,47.40247792267584,436.087342176868,54.14316908726217C517.7824426457863,60.8838602518485,681.2048987368408,11.051364077297677,772.7340817755584,35.354463668433226C864.2632648142759,59.657563259568775,908.2957962087869,177.05183035342893,985.2624404091732,199.96176663407547C1062.2290846095595,222.87170291472202,1151.9221541132263,146.27239509290823,1234.533946977876,172.81408135231246C1317.1457398425257,199.3557676117167,1406.4280703392205,318.71812088495994,1480.9331975970717,359.2118841905009C1555.438324854923,399.7056474960418,1608.3869101244952,400.429697415294,1681.5647105249832,415.7766611855581C1754.7425109254712,431.1236249558222,1880.2607850874972,445.37416587433097,1920,451.2936668120856L 1920 1080 L 0 1080 Z" fill="url(&quot;#SvgjsLinearGradient1514&quot;)"></path><path d="M0,-12.866466001705916C86.42814783816998,16.80336039306116,352.1187134694122,110.89710470997031,518.5688870290198,165.15249236689655C685.0190605886274,219.4078800238228,845.8761601152448,268.63518022608446,998.7010413576456,312.66585993985154C1151.5259226000464,356.69653965361863,1281.9683480430322,384.0681487826158,1435.5181744834244,429.3365706494991C1589.0680009238167,474.60499251638237,1839.2530290805707,558.4530877258759,1920,584.2763911411513L 1920 1080 L 0 1080 Z" fill="url(&quot;#SvgjsLinearGradient1515&quot;)"></path><path d="M0,111.61131650399015C57.32027716945053,126.97855673250858,243.1243458100435,169.62609442781766,343.9216630167032,203.8147578751007C444.71898022336285,238.00342132238373,505.0673297341838,275.05740790373204,604.783903239958,316.74329718768837C704.5004767457323,358.4291864716447,831.5732508908484,414.01039988325005,942.2211040513488,453.93009357883875C1052.8689572118492,493.84978727442746,1158.9725393168353,530.3374084983384,1268.67102220296,556.2614593612207C1378.369505089085,582.1855102241029,1491.8571717352577,581.6779939942426,1600.4120013680977,609.4743987561327C1708.9668310009376,637.2708035180228,1866.7353335613495,704.1123064031567,1920,723.0398879325616L 1920 1080 L 0 1080 Z" fill="url(&quot;#SvgjsLinearGradient1516&quot;)"></path><path d="M0,235.61512149690645C58.03695786724464,248.04225090238873,236.84358058090584,280.61614079195294,348.2217472034678,310.1778979298001C459.5999138260298,339.7396550676473,560.8545870719336,368.6426210429343,668.2689997353721,412.98566432398945C775.6834123988106,457.3287076050446,892.3251070321318,531.5160908416792,992.7082231840991,576.2361576161311C1093.0913393360665,620.956224390583,1168.3296055082044,650.398212289049,1270.567696647176,681.3060649707011C1372.8057877861477,712.2139176523532,1497.8980527924582,731.6793833326286,1606.136770017929,761.6832737060438C1714.3754872433997,791.687164079459,1867.6894616696547,844.7217182936674,1920,861.3294072111922L 1920 1080 L 0 1080 Z" fill="url(&quot;#SvgjsLinearGradient1517&quot;)"></path></svg>