<?xml version="1.0" encoding="UTF-8" standalone="no"?><!DOCTYPE svg PUBLIC "-//W3C//DTD SVG 1.1//EN" "http://www.w3.org/Graphics/SVG/1.1/DTD/svg11.dtd"><svg width="100%" height="100%" viewBox="0 0 386 182" version="1.1" xmlns="http://www.w3.org/2000/svg" xmlns:xlink="http://www.w3.org/1999/xlink" xml:space="preserve" xmlns:serif="http://www.serif.com/" style="fill-rule:evenodd;clip-rule:evenodd;stroke-linejoin:round;stroke-miterlimit:2;"><path d="M82.673,17.254c4.486,-4.48 11.861,-4.48 16.347,-0l26.312,26.312l9.144,-9.112l-26.323,-26.334c-9.495,-9.493 -25.119,-9.493 -34.614,0l-26.099,26.088l9.134,9.134l26.099,-26.088Z" style="fill:#5abe5c;fill-rule:nonzero;"/><path d="M17.255,99.019c-2.168,-2.167 -3.387,-5.109 -3.387,-8.174c-0,-3.064 1.219,-6.007 3.387,-8.173l26.216,-26.238l-9.112,-9.176l-26.238,26.248c-9.495,9.499 -9.495,25.126 0,34.625l26.216,26.206l9.134,-9.081l-26.216,-26.237Z" style="fill:#fec547;fill-rule:nonzero;"/><path d="M151.762,30.186c-3.589,-3.588 -9.493,-3.588 -13.082,-0l-47.61,47.62l-47.599,-47.62c-1.741,-1.791 -4.135,-2.803 -6.633,-2.803c-5.075,-0 -9.251,4.176 -9.251,9.251c-0,2.498 1.011,4.892 2.803,6.633l47.599,47.61l-44.121,44.004l-3.884,3.862c-2.037,1.757 -3.21,4.317 -3.21,7.006c0,5.075 4.176,9.251 9.251,9.251c2.674,0 5.221,-1.159 6.977,-3.175l108.76,-108.526c1.741,-1.736 2.72,-4.097 2.72,-6.556c0,-2.46 -0.979,-4.82 -2.72,-6.557Z" style="fill:#00364b;fill-rule:nonzero;"/><circle cx="320.488" cy="90.92" r="9.966" style="fill:#5abe5c;"/><circle cx="375.097" cy="40.664" r="9.966" style="fill:#00364b;"/><circle cx="243.738" cy="90.92" r="10.894" style="fill:#fec547;"/><path d="M243.738,57.213c0.2,-0.003 0.4,-0.005 0.6,-0.005c18.491,-0 33.706,15.216 33.706,33.707c0,18.491 -15.215,33.706 -33.706,33.706c-0.2,0 -0.4,-0.001 -0.6,-0.005c-6.433,0.006 -12.733,-1.847 -18.139,-5.335c-1.14,3.183 -4.174,5.32 -7.555,5.32c-4.401,-0 -8.024,-3.623 -8.024,-8.024c0,-0.002 0,-0.004 0,-0.006l0,-79.812c0.157,-4.301 3.737,-7.753 8.04,-7.753c4.303,0 7.884,3.452 8.04,7.753l0,25.49c5.297,-3.284 11.406,-5.029 17.638,-5.036Zm17.616,33.707c0,-9.664 -7.952,-17.616 -17.616,-17.616c-9.664,-0 -17.616,7.952 -17.616,17.616c-0,9.664 7.952,17.616 17.616,17.616c9.657,-0.017 17.599,-7.959 17.616,-17.616Z" style="fill:#00364b;fill-rule:nonzero;"/><path d="M375.097,124.616c-4.407,0 -8.034,-3.627 -8.034,-8.034l-0,-51.185c-0.004,-0.097 -0.006,-0.195 -0.006,-0.293c0,-4.413 3.632,-8.045 8.046,-8.045c4.413,-0 8.045,3.632 8.045,8.045c-0,0.098 -0.002,0.196 -0.005,0.293l-0,51.217c-0.024,4.397 -3.648,8.002 -8.046,8.002Z" style="fill:#00364b;fill-rule:nonzero;"/><path d="M163.157,80.015c0.018,0 0.036,0 0.054,0c5.982,0 10.905,4.923 10.905,10.905c-0,5.982 -4.923,10.905 -10.905,10.905c-5.982,-0 -10.905,-4.923 -10.905,-10.905c0.006,-5.96 4.892,-10.87 10.851,-10.905Z" style="fill:#f36864;fill-rule:nonzero;"/><path d="M188.819,57.373c-3.325,0.017 -6.309,2.102 -7.469,5.218l-0.544,-0.331l-0.064,0l-0.203,-0.128c-5.254,-3.173 -11.277,-4.85 -17.414,-4.85c-18.48,-0 -33.686,15.206 -33.686,33.685c0,18.479 15.206,33.685 33.686,33.685c6.445,0 12.757,-1.849 18.182,-5.328c1.157,3.153 4.175,5.261 7.533,5.261c4.382,-0 7.995,-3.59 8.024,-7.971l0,-51.217c-0.017,-4.403 -3.642,-8.018 -8.045,-8.024Zm-25.662,51.217c-0.003,-0 -0.007,-0 -0.01,-0c-9.67,-0 -17.627,-7.957 -17.627,-17.627c-0,-9.67 7.957,-17.627 17.627,-17.627c9.67,-0 17.627,7.957 17.627,17.627c-0,0.003 -0,0.007 -0,0.01c-0.047,9.638 -7.979,17.546 -17.617,17.563l0,0.054Z" style="fill:#00364b;fill-rule:nonzero;"/><path d="M346.149,57.373c-3.323,0.023 -6.304,2.106 -7.469,5.218l-0.533,-0.331l-0.064,0l-0.203,-0.128c-6.448,-4.003 -14.1,-5.623 -21.617,-4.577c-16.725,2.139 -29.393,16.53 -29.393,33.392c-0,16.861 12.668,31.252 29.393,33.392c7.827,1.087 15.789,-0.695 22.407,-5.015c1.187,3.096 4.176,5.151 7.492,5.151c4.34,-0 7.934,-3.522 8.022,-7.861l0,-51.217c-0.012,-4.401 -3.633,-8.018 -8.035,-8.024Zm-25.608,51.217c-0.003,-0 -0.007,-0 -0.01,-0c-9.67,-0 -17.627,-7.957 -17.627,-17.627c-0,-9.67 7.957,-17.627 17.627,-17.627c9.669,-0 17.627,7.957 17.627,17.627c-0,0.003 -0,0.007 -0,0.01c-0.047,9.658 -8.013,17.575 -17.67,17.563l0.053,0.054Z" style="fill:#00364b;fill-rule:nonzero;"/><path d="M147.398,47.663l-9.145,9.123l6.168,6.168c3.931,-2.645 8.379,-4.423 13.049,-5.218l-10.072,-10.073Z" style="fill:#f36864;fill-rule:nonzero;"/><path d="M99.02,164.746c-4.486,4.48 -11.861,4.48 -16.347,0l-26.27,-26.269l-9.144,9.133l26.28,26.27c9.495,9.493 25.119,9.493 34.614,-0l49.723,-49.723c-4.703,-0.738 -9.196,-2.47 -13.178,-5.079l-45.678,45.668Z" style="fill:#f36864;fill-rule:nonzero;"/></svg>